<?xml version="1.0" encoding="utf-8"?>
<!-- Generator: Adobe Illustrator 27.5.0, SVG Export Plug-In . SVG Version: 6.00 Build 0)  -->
<svg version="1.1" xmlns="http://www.w3.org/2000/svg" xmlns:xlink="http://www.w3.org/1999/xlink" x="0px" y="0px"
	 viewBox="0 0 500 500" style="enable-background:new 0 0 500 500;" xml:space="preserve">
<g id="BACKGROUND">
	<rect x="0" style="fill:#FFFFFF;" width="499.999" height="500"/>
</g>
<g id="OBJECTS">
	<g>
		<g>
			<path style="fill:#171E2B;" d="M233.824,321.981l21.852,23.796c2.824,3.075,4.993,6.517,6.519,10.157
				c1.064,2.537,4.305,3.267,6.331,1.406l13.249-12.166c2.026-1.861,1.574-5.152-0.863-6.428c-3.497-1.831-6.743-4.284-9.566-7.359
				l-21.852-23.796c-6.722-7.32-9.746-16.719-9.188-25.912l-14.659-17.695l-33.244,30.528l16.384,16.111
				C217.995,310.849,227.103,314.661,233.824,321.981z"/>
			<path style="fill:#171E2B;" d="M87.729,239.286l61.297,66.689c5.953,6.477,14.248,10.305,23.039,10.634l27.009,1.009
				c3.645,0.136,7.196-1.172,9.882-3.641l31.651-29.092c2.685-2.468,4.288-5.897,4.459-9.541l1.267-26.998
				c0.412-8.787-2.705-17.375-8.658-23.852l-61.297-66.689c-10.883-11.84-29.303-12.616-41.143-1.734l-45.772,42.071
				C77.622,209.025,76.846,227.446,87.729,239.286z"/>
			<path style="fill:#0C3D72;" d="M171.122,311.548c-0.864-0.068-1.727-0.175-2.577-0.322c-6.057-1.044-11.682-4.109-15.839-8.635
				L91.41,235.902c-4.36-4.743-6.611-10.9-6.34-17.337c0.271-6.437,3.032-12.382,7.776-16.742l45.772-42.07
				c5.549-5.101,12.999-7.287,20.436-6.01c5.285,0.91,10.003,3.485,13.642,7.445l61.296,66.689
				c5.015,5.457,7.692,12.831,7.345,20.234l-1.267,26.998c-0.111,2.343-1.122,4.507-2.848,6.094l-31.651,29.092
				c-1.728,1.587-3.97,2.413-6.313,2.325l-27.008-1.008C171.875,311.599,171.499,311.577,171.122,311.548z"/>
			
				<rect x="85.629" y="194.73" transform="matrix(0.7382 -0.6746 0.6746 0.7382 -100.9308 145.6504)" style="fill:#156CBF;" width="103.081" height="16.24"/>
			
				<rect x="106.757" y="217.848" transform="matrix(0.7382 -0.6746 0.6746 0.7382 -110.9947 165.9571)" style="fill:#156CBF;" width="103.081" height="16.24"/>
			
				<rect x="127.885" y="240.966" transform="matrix(0.7382 -0.6746 0.6746 0.7382 -121.0586 186.2637)" style="fill:#156CBF;" width="103.081" height="16.24"/>
			<polygon style="fill:#156CBF;" points="233.121,231.44 157.03,300.98 169.843,311.271 239.764,247.369 			"/>
			<g>
				<path style="fill:#43AAEF;" d="M171.122,311.548c-0.864-0.068-1.727-0.175-2.577-0.322c-6.057-1.044-11.682-4.109-15.839-8.635
					L91.41,235.902c-4.36-4.743-6.611-10.9-6.34-17.337c0.271-6.437,3.032-12.382,7.776-16.742l45.772-42.07
					c5.549-5.101,12.999-7.287,20.436-6.01c5.285,0.91,10.003,3.485,13.642,7.445l61.296,66.689
					c5.015,5.457,7.692,12.831,7.345,20.234l-1.267,26.998c-0.111,2.343-1.122,4.507-2.848,6.094l-31.651,29.092
					c-1.728,1.587-3.97,2.413-6.313,2.325l-27.008-1.008C171.875,311.599,171.499,311.577,171.122,311.548z M156.327,159.443
					c-5.009-0.392-9.905,1.286-13.649,4.727l-45.772,42.071c-3.563,3.275-5.638,7.741-5.842,12.576
					c-0.204,4.836,1.488,9.461,4.764,13.024l61.297,66.689c3.265,3.554,7.683,5.962,12.441,6.781l0.001,0
					c0.958,0.166,1.937,0.268,2.909,0.305l27.008,1.007c0.753,0.028,1.474-0.237,2.028-0.746l31.65-29.091
					c0.555-0.509,0.88-1.206,0.915-1.958l1.267-26.998c0.273-5.814-1.83-11.607-5.77-15.892l-61.296-66.689
					c-2.734-2.976-6.276-4.909-10.243-5.592C157.466,159.559,156.895,159.488,156.327,159.443z"/>
			</g>
			<g>
				<path style="fill:#9DC11E;" d="M271.345,331.387l-21.852-23.796c-2.819-3.069-4.978-6.507-6.505-10.139l-18.77,17.154
					c3.511,1.833,6.772,4.288,9.606,7.374l21.852,23.796c0.084,0.092,0.155,0.191,0.238,0.283l15.722-14.369
					C271.54,331.589,271.441,331.491,271.345,331.387z"/>
				<path style="fill:#C3E240;" d="M264.488,329.4l-21.532-23.597c-1.195-1.309-3.216-1.425-4.553-0.261l-0.974,0.849
					c-1.42,1.237-1.501,3.416-0.176,4.755l22.506,22.748c1.234,1.247,3.233,1.295,4.525,0.109l0,0
					C265.608,332.787,265.7,330.729,264.488,329.4z"/>
				<path style="fill:#6F9B37;" d="M265.34,324.848l-15.707-17.105l-17.257,12.761c0,0,0.001,0.001,0.001,0.001
					c0.492,0.477,0.978,0.964,1.447,1.476l19.506,21.241L265.34,324.848z"/>
			</g>
		</g>
		<g>
			<path style="fill:#171E2B;" d="M266.176,321.981l-21.852,23.796c-2.824,3.075-4.993,6.517-6.519,10.157
				c-1.064,2.537-4.305,3.267-6.331,1.406l-13.249-12.166c-2.026-1.861-1.574-5.152,0.863-6.428
				c3.497-1.831,6.743-4.284,9.566-7.359l21.852-23.796c6.722-7.32,9.746-16.719,9.188-25.912l14.659-17.695l33.244,30.528
				l-16.384,16.111C282.005,310.849,272.897,314.661,266.176,321.981z"/>
			<path style="fill:#171E2B;" d="M412.271,239.286l-61.297,66.689c-5.953,6.477-14.248,10.305-23.039,10.634l-27.009,1.009
				c-3.645,0.136-7.196-1.172-9.882-3.641l-31.651-29.092c-2.685-2.468-4.288-5.897-4.459-9.541l-1.267-26.998
				c-0.412-8.787,2.705-17.375,8.658-23.852l61.297-66.689c10.883-11.84,29.303-12.616,41.143-1.734l45.772,42.071
				C422.378,209.025,423.154,227.446,412.271,239.286z"/>
			<path style="fill:#0C3D72;" d="M327.749,311.612l-27.008,1.008c-2.344,0.088-4.585-0.738-6.313-2.325l-31.651-29.092
				c-1.726-1.586-2.737-3.75-2.848-6.094l-1.267-26.998c-0.347-7.403,2.33-14.777,7.345-20.234l61.296-66.689
				c3.64-3.961,8.357-6.535,13.642-7.445c7.438-1.277,14.887,0.909,20.436,6.01l45.772,42.07c4.744,4.359,7.505,10.305,7.776,16.742
				c0.271,6.436-1.981,12.593-6.34,17.337l-61.297,66.688c-4.157,4.525-9.782,7.591-15.839,8.635
				c-0.85,0.147-1.713,0.254-2.577,0.322C328.501,311.577,328.125,311.599,327.749,311.612z"/>
			
				<rect x="354.711" y="151.309" transform="matrix(0.6746 -0.7382 0.7382 0.6746 -31.6788 333.8317)" style="fill:#156CBF;" width="16.24" height="103.081"/>
			
				<rect x="333.583" y="174.427" transform="matrix(0.6746 -0.7382 0.7382 0.6746 -55.6185 325.758)" style="fill:#156CBF;" width="16.24" height="103.081"/>
			
				<rect x="312.455" y="197.545" transform="matrix(0.6746 -0.7382 0.7382 0.6746 -79.5581 317.6841)" style="fill:#156CBF;" width="16.24" height="103.081"/>
			<polygon style="fill:#156CBF;" points="266.879,231.44 342.97,300.98 330.157,311.271 260.236,247.369 			"/>
			<g>
				<path style="fill:#43AAEF;" d="M327.749,311.612l-27.008,1.008c-2.344,0.088-4.585-0.738-6.313-2.325l-31.651-29.092
					c-1.726-1.586-2.737-3.75-2.848-6.094l-1.267-26.998c-0.347-7.403,2.33-14.777,7.345-20.234l61.296-66.689
					c3.64-3.961,8.357-6.535,13.642-7.445c7.438-1.277,14.887,0.909,20.436,6.01l45.772,42.07
					c4.744,4.359,7.505,10.305,7.776,16.742c0.271,6.436-1.981,12.593-6.34,17.337l-61.297,66.688
					c-4.157,4.525-9.782,7.591-15.839,8.635c-0.85,0.147-1.713,0.254-2.577,0.322C328.501,311.577,328.125,311.599,327.749,311.612z
					 M341.965,159.657c-3.967,0.683-7.509,2.617-10.243,5.592l-61.296,66.689c-3.939,4.285-6.042,10.078-5.77,15.892l1.267,26.998
					c0.035,0.753,0.361,1.449,0.915,1.958l31.65,29.091c0.555,0.509,1.275,0.774,2.028,0.746l27.008-1.007
					c0.972-0.037,1.951-0.139,2.909-0.305l0.001,0c4.757-0.82,9.175-3.227,12.44-6.781l61.297-66.689
					c3.276-3.563,4.967-8.188,4.763-13.024c-0.204-4.835-2.278-9.301-5.842-12.576l-45.772-42.071
					c-3.744-3.441-8.64-5.119-13.649-4.727C343.104,159.488,342.534,159.559,341.965,159.657z"/>
			</g>
			<g>
				<path style="fill:#9DC11E;" d="M228.655,331.387l21.852-23.796c2.819-3.069,4.978-6.507,6.505-10.139l18.77,17.154
					c-3.511,1.833-6.772,4.288-9.606,7.374l-21.852,23.796c-0.084,0.092-0.155,0.191-0.238,0.283l-15.722-14.369
					C228.46,331.589,228.559,331.491,228.655,331.387z"/>
				<path style="fill:#C3E240;" d="M234.952,329.4l21.532-23.597c1.195-1.309,3.216-1.425,4.553-0.261l0.974,0.849
					c1.42,1.237,1.501,3.416,0.176,4.755l-22.506,22.748c-1.234,1.247-3.233,1.295-4.525,0.109l0,0
					C233.831,332.787,233.74,330.729,234.952,329.4z"/>
			</g>
		</g>
		<g>
			<g>
				<polygon style="fill:#FF8B22;" points="288.572,135.348 250.001,144.481 211.429,135.348 214.503,220.564 228.813,204.642 
					250.001,298.9 271.188,204.642 285.498,220.564 				"/>
				<path style="fill:#FF6F1F;" d="M211.429,138.891l1.783,49.417v0c7.615,7.045,16.749,11.49,26.283,13.368l10.506,55.046
					l10.505-55.04c9.546-1.875,18.682-6.322,26.283-13.354l1.783-49.436l-38.571,9.133L211.429,138.891z"/>
			</g>
			<g>
				
					<ellipse transform="matrix(0.9215 -0.3884 0.3884 0.9215 -35.0305 108.1502)" style="fill:#6F9B37;" cx="250" cy="140.725" rx="53.032" ry="53.032"/>
				<ellipse style="fill:#9DC11E;" cx="250.001" cy="131.989" rx="46.154" ry="41.323"/>
				<ellipse style="fill:#C3E240;" cx="250.001" cy="109.251" rx="27.165" ry="15.635"/>
				<g>
					<path style="fill:#5D7F2D;" d="M250.378,132.105c-4.761-0.208-8.789,3.482-8.997,8.243c-0.208,4.761,3.482,8.789,8.243,8.997
						c4.761,0.208,8.789-3.482,8.997-8.243C258.829,136.342,255.138,132.313,250.378,132.105z"/>
					<path style="fill:#171E2B;" d="M249.685,147.931c-3.973-0.174-7.065-3.548-6.891-7.521c0.174-3.974,3.548-7.065,7.521-6.891
						c3.974,0.174,7.065,3.548,6.891,7.522C257.033,145.014,253.659,148.105,249.685,147.931z"/>
					<path style="fill:#5D7F2D;" d="M229.72,104.309c-3.623-1.687-8.19,0.447-10.202,4.766c-2.012,4.32-0.707,9.189,2.916,10.877
						c3.622,1.687,8.19-0.447,10.202-4.766C234.648,110.866,233.342,105.996,229.72,104.309z"/>
					<path style="fill:#171E2B;" d="M224.846,119.109c-0.636-0.028-1.247-0.176-1.815-0.441c-1.366-0.636-2.361-1.892-2.802-3.535
						c-0.465-1.734-0.262-3.673,0.571-5.461c1.313-2.818,3.928-4.635,6.507-4.522c0.636,0.028,1.247,0.176,1.815,0.441
						c1.366,0.636,2.361,1.892,2.801,3.535c0.465,1.733,0.262,3.673-0.571,5.461C230.04,117.405,227.426,119.222,224.846,119.109
						C224.846,119.109,224.846,119.109,224.846,119.109z"/>
					<path style="fill:#5D7F2D;" d="M273.384,106.219c-3.756,1.364-5.482,6.101-3.855,10.58c1.627,4.479,5.991,7.004,9.747,5.639
						c3.756-1.364,5.482-6.101,3.855-10.58C281.504,107.379,277.14,104.855,273.384,106.219z"/>
					<path style="fill:#171E2B;" d="M276.946,121.389c-2.58-0.113-5.026-2.152-6.086-5.073c-1.358-3.738-0.01-7.671,3.007-8.767
						c0.588-0.214,1.21-0.308,1.846-0.28c2.58,0.113,5.026,2.151,6.088,5.073c1.357,3.738,0.008,7.671-3.009,8.767
						C278.204,121.322,277.583,121.417,276.946,121.389L276.946,121.389z"/>
					<path style="fill:#5D7F2D;" d="M252.25,89.306c-4.761-0.208-8.704,1.552-8.809,3.933c-0.104,2.38,3.671,4.479,8.432,4.687
						c4.761,0.208,8.704-1.552,8.809-3.933C260.786,91.613,257.011,89.514,252.25,89.306z"/>
					<path style="fill:#171E2B;" d="M251.935,96.512c-4.399-0.193-7.131-2.031-7.079-3.211c0.052-1.181,2.934-2.773,7.333-2.581
						c4.399,0.192,7.131,2.031,7.079,3.212S256.334,96.705,251.935,96.512z"/>
					<path style="fill:#5D7F2D;" d="M248.185,182.219c-4.761-0.208-8.704,1.552-8.809,3.933c-0.104,2.38,3.671,4.479,8.431,4.687
						c4.761,0.208,8.704-1.552,8.809-3.933C256.721,184.526,252.946,182.427,248.185,182.219z"/>
					<path style="fill:#171E2B;" d="M247.87,189.425c-4.399-0.192-7.131-2.031-7.079-3.211c0.052-1.18,2.934-2.773,7.333-2.581
						c4.399,0.192,7.131,2.031,7.079,3.211C255.151,188.025,252.269,189.618,247.87,189.425z"/>
					<path style="fill:#5D7F2D;" d="M277.625,160.194c-3.622-1.687-8.19,0.447-10.202,4.766c-2.012,4.32-0.706,9.189,2.916,10.877
						c3.622,1.687,8.19-0.447,10.202-4.766C282.553,166.75,281.247,161.881,277.625,160.194z"/>
					<path style="fill:#171E2B;" d="M272.751,174.994c-0.637-0.028-1.247-0.176-1.814-0.441c-1.367-0.636-2.362-1.891-2.802-3.535
						c-0.465-1.734-0.263-3.673,0.57-5.461c1.312-2.817,3.927-4.634,6.507-4.522c0.637,0.028,1.247,0.176,1.815,0.441
						c2.909,1.355,3.91,5.39,2.231,8.996C277.945,173.29,275.33,175.107,272.751,174.994L272.751,174.994z"/>
					<path style="fill:#5D7F2D;" d="M220.782,157.706c-3.756,1.365-5.482,6.102-3.855,10.58s5.991,7.004,9.747,5.639
						c3.756-1.365,5.482-6.102,3.855-10.58C228.901,158.867,224.538,156.342,220.782,157.706z"/>
					<path style="fill:#171E2B;" d="M224.345,172.876c-2.58-0.113-5.026-2.152-6.088-5.073c-1.358-3.738-0.008-7.671,3.008-8.767
						c0.589-0.214,1.21-0.308,1.847-0.281c2.58,0.113,5.026,2.151,6.087,5.073c0.673,1.854,0.706,3.804,0.092,5.491
						c-0.582,1.598-1.683,2.762-3.099,3.276C225.602,172.81,224.981,172.904,224.345,172.876L224.345,172.876z"/>
					<path style="fill:#5D7F2D;" d="M208.467,130.271c-3.992-0.175-7.398,3.543-7.606,8.304c-0.208,4.761,2.859,8.762,6.852,8.937
						c3.992,0.175,7.398-3.543,7.606-8.304C215.527,134.447,212.46,130.446,208.467,130.271z"/>
					<path style="fill:#171E2B;" d="M207.775,146.098c-3.206-0.14-5.673-3.487-5.5-7.46c0.174-3.974,2.924-7.092,6.13-6.952
						c3.206,0.14,5.673,3.487,5.5,7.461C213.731,143.119,210.982,146.238,207.775,146.098z"/>
					<path style="fill:#5D7F2D;" d="M292.288,133.939c-3.992-0.175-7.398,3.543-7.606,8.304c-0.208,4.761,2.859,8.762,6.852,8.936
						c3.992,0.175,7.398-3.543,7.606-8.304C299.348,138.114,296.28,134.113,292.288,133.939z"/>
					<path style="fill:#171E2B;" d="M291.595,149.765c-3.206-0.14-5.673-3.487-5.5-7.46c0.174-3.974,2.924-7.092,6.13-6.952
						c3.206,0.14,5.674,3.487,5.5,7.461C297.551,146.787,294.801,149.905,291.595,149.765z"/>
				</g>
			</g>
		</g>
	</g>
</g>
<g id="TEXTS">
	<g>
		
			<text transform="matrix(1 0 0 1 140.6475 398.1108)" style="fill:#171E2B; font-family:'Outfit-Black'; font-size:41.422px; letter-spacing:1;">pickleball</text>
		
			<text transform="matrix(1 0 0 1 140.5845 416.7329)" style="fill:#FF8B22; font-family:'Lato-Semibold'; font-size:14px; letter-spacing:2;">your tagline goes here</text>
	</g>
</g>
</svg>
